<svg xmlns="http://www.w3.org/2000/svg" width="34.68" height="34.875" viewBox="0 0 11.56 11.625">
  <metadata><?xpacket begin="﻿" id="W5M0MpCehiHzreSzNTczkc9d"?>
<x:xmpmeta xmlns:x="adobe:ns:meta/" x:xmptk="Adobe XMP Core 5.6-c142 79.160924, 2017/07/13-01:06:39        ">
   <rdf:RDF xmlns:rdf="http://www.w3.org/1999/02/22-rdf-syntax-ns#">
      <rdf:Description rdf:about=""/>
   </rdf:RDF>
</x:xmpmeta>
                                                                                                    
                                                                                                    
                                                                                                    
                                                                                                    
                                                                                                    
                                                                                                    
                                                                                                    
                                                                                                    
                                                                                                    
                                                                                                    
                                                                                                    
                                                                                                    
                                                                                                    
                                                                                                    
                                                                                                    
                                                                                                    
                                                                                                    
                                                                                                    
                                                                                                    
                                                                                                    
                           
<?xpacket end="w"?></metadata>
<defs>
    <style>
      .cls-1 {
        fill-rule: evenodd;
      }
    </style>
  </defs>
  <path id="Forma_1" data-name="Forma 1" class="cls-1" d="M2109.61,609.172a1.937,1.937,0,0,0-1.43.63l-4.22-2.107a1.509,1.509,0,0,0,.03-0.3,1.438,1.438,0,0,0-.03-0.294l4.21-2.084a1.952,1.952,0,0,0,1.44.635,2.021,2.021,0,1,0-1.98-2.021,2.845,2.845,0,0,0,.02.295l-4.21,2.083a1.947,1.947,0,0,0-1.43-.635,2.021,2.021,0,0,0,0,4.042,1.952,1.952,0,0,0,1.43-.629l4.21,2.106a2.983,2.983,0,0,0-.02.3A1.98,1.98,0,1,0,2109.61,609.172Z" transform="translate(-2100.03 -601.594)"/>
</svg>
