<?xml version="1.0" encoding="utf-8"?>
<!-- Generator: Adobe Illustrator 23.0.3, SVG Export Plug-In . SVG Version: 6.00 Build 0)  -->
<svg version="1.1" id="bookmark" xmlns="http://www.w3.org/2000/svg" xmlns:xlink="http://www.w3.org/1999/xlink" x="0px" y="0px"
	 viewBox="0 0 404 404" style="enable-background:new 0 0 404 404;" xml:space="preserve">
<path d="M335.3,0H68.4c-5.5,0-10,4.5-10,10v374c0,7.5,4.2,14.4,10.8,17.8c6.7,3.4,14.7,2.8,20.8-1.5l111.8-80.2l111.8,80.2
	c6.1,4.4,14.1,5,20.8,1.5c6.7-3.4,10.8-10.3,10.8-17.8V10C345.3,4.5,340.9,0,335.3,0z M325.4,384l-117.6-84.3
	c-3.5-2.5-8.2-2.5-11.6,0L78.4,384V20h246.9V384z"/>
</svg>
