<?xml version="1.0" encoding="utf-8"?>
<!-- Generator: Adobe Illustrator 23.0.3, SVG Export Plug-In . SVG Version: 6.00 Build 0)  -->
<svg version="1.1" id="label" xmlns="http://www.w3.org/2000/svg" xmlns:xlink="http://www.w3.org/1999/xlink" x="0px" y="0px"
	 viewBox="0 0 512 512" style="enable-background:new 0 0 512 512;" xml:space="preserve">
<path d="M391.7,160c22,0,39.9-17.9,39.9-39.9s-17.9-39.9-39.9-39.9s-39.9,17.9-39.9,39.9v0C351.8,142.1,369.7,160,391.7,160z
	 M391.7,94.2c14.3,0,25.9,11.6,25.9,25.9S406,146,391.7,146s-25.9-11.6-25.9-25.9c0,0,0,0,0,0C365.8,105.8,377.4,94.2,391.7,94.2
	L391.7,94.2z"/>
<path d="M485.8,19H282.7c-1.9,0-3.6,0.7-4.9,2.1L21.3,277.5c-2.7,2.7-2.7,7.2,0,9.9c0,0,0,0,0,0l203.1,203.1c2.7,2.7,7.2,2.7,9.9,0
	c0,0,0,0,0,0l256.4-256.4c1.3-1.3,2.1-3.1,2.1-4.9V26C492.8,22.1,489.6,19,485.8,19C485.8,19,485.8,19,485.8,19z M478.8,226.2
	L229.3,475.6L36.1,282.4L285.6,33h193.2L478.8,226.2z"/>
<path d="M255.5,425.4c2.7,2.7,7.2,2.7,9.9,0c0,0,0,0,0,0l75-75c2.7-2.7,2.7-7.2,0-9.9s-7.2-2.7-9.9,0l-75,75
	C252.8,418.3,252.8,422.7,255.5,425.4C255.5,425.4,255.5,425.4,255.5,425.4L255.5,425.4z"/>
</svg>
