<svg xmlns="http://www.w3.org/2000/svg" width="30.48" height="53.718" viewBox="0 0 10.16 17.906">
  <metadata><?xpacket begin="﻿" id="W5M0MpCehiHzreSzNTczkc9d"?>
<x:xmpmeta xmlns:x="adobe:ns:meta/" x:xmptk="Adobe XMP Core 5.6-c142 79.160924, 2017/07/13-01:06:39        ">
   <rdf:RDF xmlns:rdf="http://www.w3.org/1999/02/22-rdf-syntax-ns#">
      <rdf:Description rdf:about=""/>
   </rdf:RDF>
</x:xmpmeta>
<?xpacket end="w"?></metadata>
<defs>
    <style>
      .cls-1 {
        fill: #171717;
        fill-rule: evenodd;
      }
    </style>
  </defs>
  <path id="fb" class="cls-1" d="M1055.78,378l-2.44,0a4.178,4.178,0,0,0-4.51,4.4v2.031h-2.45a0.372,0.372,0,0,0-.38.365v2.943a0.372,0.372,0,0,0,.38.365h2.45v7.425a0.382,0.382,0,0,0,.39.365h3.2a0.373,0.373,0,0,0,.38-0.365v-7.425h2.86a0.375,0.375,0,0,0,.39-0.365V384.8a0.362,0.362,0,0,0-.11-0.258,0.388,0.388,0,0,0-.27-0.107h-2.87v-1.722c0-.827.21-1.248,1.34-1.248h1.64a0.372,0.372,0,0,0,.38-0.365v-2.733A0.372,0.372,0,0,0,1055.78,378Z" transform="translate(-1046 -378)"/>
</svg>
