<svg xmlns="http://www.w3.org/2000/svg" width="53.34" height="43.032" viewBox="0 0 17.78 14.344">
  <metadata><?xpacket begin="﻿" id="W5M0MpCehiHzreSzNTczkc9d"?>
<x:xmpmeta xmlns:x="adobe:ns:meta/" x:xmptk="Adobe XMP Core 5.6-c142 79.160924, 2017/07/13-01:06:39        ">
   <rdf:RDF xmlns:rdf="http://www.w3.org/1999/02/22-rdf-syntax-ns#">
      <rdf:Description rdf:about=""/>
   </rdf:RDF>
</x:xmpmeta>
<?xpacket end="w"?></metadata>
<defs>
    <style>
      .cls-1 {
        fill: #171717;
        fill-rule: evenodd;
      }
    </style>
  </defs>
  <path id="g_" data-name="g+" class="cls-1" d="M1061.86,508.28h-6.37v2.227h3.89a4.587,4.587,0,0,1-4.34,3.341,4.778,4.778,0,0,1,0-9.546,4.423,4.423,0,0,1,3.23,1.417l1.54-1.758a6.631,6.631,0,0,0-4.77-2.045,7.162,7.162,0,1,0,6.82,8.591V508.28h0Zm4.14,0h-1.3v-1.367h-1.12v1.367h-1.3v1.172h1.3v1.366h1.12v-1.366h1.3v-1.172Z" transform="translate(-1048.22 -501.906)"/>
</svg>
