<svg xmlns="http://www.w3.org/2000/svg" width="56.25" height="57.561" viewBox="0 0 18.75 19.187">
  <metadata><?xpacket begin="﻿" id="W5M0MpCehiHzreSzNTczkc9d"?>
<x:xmpmeta xmlns:x="adobe:ns:meta/" x:xmptk="Adobe XMP Core 5.6-c142 79.160924, 2017/07/13-01:06:39        ">
   <rdf:RDF xmlns:rdf="http://www.w3.org/1999/02/22-rdf-syntax-ns#">
      <rdf:Description rdf:about=""/>
   </rdf:RDF>
</x:xmpmeta>
<?xpacket end="w"?></metadata>
<defs>
    <style>
      .cls-1 {
        fill: #171717;
        fill-rule: evenodd;
      }
    </style>
  </defs>
  <path id="insta" class="cls-1" d="M1059.57,560.822h-8.4a5.238,5.238,0,0,0-5.17,5.292v8.593a5.238,5.238,0,0,0,5.17,5.292h8.4a5.24,5.24,0,0,0,5.18-5.292v-8.593A5.24,5.24,0,0,0,1059.57,560.822Zm3.52,13.885a3.559,3.559,0,0,1-3.51,3.591h-8.41a3.559,3.559,0,0,1-3.51-3.591v-8.593a3.559,3.559,0,0,1,3.51-3.591h8.4a3.561,3.561,0,0,1,3.52,3.591v8.593h0Zm-7.72-9.237a4.942,4.942,0,1,0,4.84,4.941A4.894,4.894,0,0,0,1055.37,565.47Zm0,8.181a3.241,3.241,0,1,1,3.17-3.24A3.206,3.206,0,0,1,1055.37,573.651Zm5.04-9.624a1.2,1.2,0,0,0-.86.365,1.262,1.262,0,0,0,0,1.765,1.2,1.2,0,0,0,.86.365,1.221,1.221,0,0,0,.86-0.365,1.262,1.262,0,0,0,0-1.765A1.212,1.212,0,0,0,1060.41,564.027Z" transform="translate(-1046 -560.813)"/>
</svg>
