<svg xmlns="http://www.w3.org/2000/svg" width="50.79" height="43.032" viewBox="0 0 16.93 14.344">
  <metadata><?xpacket begin="﻿" id="W5M0MpCehiHzreSzNTczkc9d"?>
<x:xmpmeta xmlns:x="adobe:ns:meta/" x:xmptk="Adobe XMP Core 5.6-c142 79.160924, 2017/07/13-01:06:39        ">
   <rdf:RDF xmlns:rdf="http://www.w3.org/1999/02/22-rdf-syntax-ns#">
      <rdf:Description rdf:about=""/>
   </rdf:RDF>
</x:xmpmeta>
<?xpacket end="w"?></metadata>
<defs>
    <style>
      .cls-1 {
        fill: #171717;
        fill-rule: evenodd;
      }
    </style>
  </defs>
  <path id="tw" class="cls-1" d="M1062.89,440.654a6.909,6.909,0,0,1-2.21.877,3.421,3.421,0,0,0-2.54-1.142,3.543,3.543,0,0,0-3.47,3.615,3.723,3.723,0,0,0,.09.824,9.769,9.769,0,0,1-7.17-3.778,3.713,3.713,0,0,0,1.08,4.826,3.377,3.377,0,0,1-1.58-.454v0.046a3.587,3.587,0,0,0,2.79,3.545,3.348,3.348,0,0,1-1.57.062,3.5,3.5,0,0,0,3.25,2.511,6.821,6.821,0,0,1-5.15,1.5,9.581,9.581,0,0,0,5.33,1.625c6.39,0,9.89-5.509,9.89-10.287l-0.01-.469a7.058,7.058,0,0,0,1.73-1.869,6.7,6.7,0,0,1-1.99.57A3.606,3.606,0,0,0,1062.89,440.654Z" transform="translate(-1046.41 -440.375)"/>
</svg>
