<svg xmlns="http://www.w3.org/2000/svg" width="60" height="64" viewBox="0 0 15 16"><g><g><path fill="#202020" d="M15 6.404v8.643a.955.955 0 0 1-.958.952H.957A.955.955 0 0 1 0 15.047V6.403c0-.525.428-.951.957-.951h1.62v1.72c-.213.21-.346.503-.346.825 0 .644.525 1.165 1.171 1.165s1.17-.52 1.17-1.165c0-.322-.132-.615-.347-.825v-1.72h6.73v1.687a1.15 1.15 0 0 0-.387.859c0 .643.524 1.165 1.17 1.165.646 0 1.17-.522 1.17-1.165 0-.3-.117-.571-.305-.778V5.452h1.439c.53 0 .958.427.958.952zm-3.222 2.074a.481.481 0 0 1-.481-.48V4.643c0-2.032-1.663-3.686-3.706-3.686-2.044 0-3.707 1.654-3.707 3.686v3.355a.482.482 0 0 1-.964 0V4.643c0-2.56 2.095-4.645 4.671-4.645 2.575 0 4.67 2.085 4.67 4.645v3.355c0 .265-.216.48-.483.48z"/></g></g></svg>