<svg xmlns="http://www.w3.org/2000/svg" width="64" height="60" viewBox="0 0 16 15"><g><g><path fill="#171717" d="M15.678 14.72c-.195.183-.45.276-.707.276-.256 0-.513-.093-.708-.276L9.45 10.208a6.234 6.234 0 0 1-3.467 1.04c-3.31 0-5.993-2.515-5.993-5.618C-.01 2.526 2.673.012 5.983.012c3.31 0 5.993 2.514 5.993 5.618a5.358 5.358 0 0 1-1.11 3.25l4.812 4.513a.897.897 0 0 1 0 1.327zm-5.7-9.09c0-2.065-1.792-3.747-3.995-3.747-2.203 0-3.995 1.682-3.995 3.747 0 2.066 1.792 3.745 3.995 3.745.83 0 1.628-.24 2.31-.693l.552-.37.393-.517a3.556 3.556 0 0 0 .74-2.165z"/></g></g></svg>