<?xml version="1.0" encoding="utf-8"?><svg viewBox="0 0 137 47" xmlns="http://www.w3.org/2000/svg" xmlns:xlink="http://www.w3.org/1999/xlink"><style>:root>svg{display:none}:root>svg:target{display:block}</style><svg fill="none" viewBox="0 0 21 13" id="arrow-down" xmlns="http://www.w3.org/2000/svg"><path d="M19.571 6.806l-6.043 5.667m6.043-5.667L14.017.88m5.554 5.925L.608 6.196" stroke="#fff"/></svg><svg viewBox="0 0 7 15" id="fb" xmlns="http://www.w3.org/2000/svg"><path d="M6.63 7.2H4.668V15H1.75V7.2H0V4.8h1.75V3.354C1.752 1.249 2.602 0 5.013 0H7v2.4H5.667c-.939 0-1 .36-1 1.034V4.8H7l-.37 2.4z"/></svg><svg viewBox="0 0 14 14" id="inst" xmlns="http://www.w3.org/2000/svg"><circle cx="5.5" cy="8.5" r="5" fill="none"/><circle cx="12.5" cy="1.5" r="1.5"/></svg><svg fill="none" viewBox="0 0 16 16" id="inst-works" xmlns="http://www.w3.org/2000/svg"><rect x=".5" y=".5" width="15" height="15" rx="3.5" stroke="#fff"/><circle cx="8" cy="8" r="3.02" stroke="#fff"/><circle cx="12.48" cy="3.52" r=".96" fill="#fff"/></svg><svg fill="none" viewBox="0 0 137 47" id="logo" xmlns="http://www.w3.org/2000/svg"><path d="M.9 41.8H1c.093 0 .18-.04.26-.12.08-.08.147-.173.2-.28a1.08 1.08 0 00.14-.34c.027-.133.04-.253.04-.36V30.06c0-.093-.013-.2-.04-.32a1.08 1.08 0 00-.14-.34.668.668 0 00-.22-.28.384.384 0 00-.28-.12h-.1v-.2h3.28c1.24 0 2.207.273 2.9.82.707.547 1.06 1.273 1.06 2.18 0 .387-.067.733-.2 1.04-.133.307-.307.58-.52.82-.2.24-.42.447-.66.62-.24.16-.467.293-.68.4.56.107 1.027.287 1.4.54.373.253.673.547.9.88.24.32.407.667.5 1.04.093.373.14.74.14 1.1 0 .693-.127 1.28-.38 1.76a3.417 3.417 0 01-1.02 1.16 4.166 4.166 0 01-1.44.64 6.82 6.82 0 01-1.66.2H.9v-.2zm6.72-3.44c-.107-1.027-.453-1.82-1.04-2.38-.587-.56-1.413-.84-2.48-.84H2.98v6.2h1.16c1.08 0 1.927-.24 2.54-.72.627-.493.94-1.173.94-2.04v-.22zm-.82-6.38c-.04-.773-.313-1.387-.82-1.84-.493-.453-1.16-.68-2-.68h-1v5.04h1.04c.56 0 1.013-.073 1.36-.22.36-.147.647-.333.86-.56.213-.24.36-.5.44-.78.08-.28.12-.553.12-.82v-.14zm5.085 9.82h.1c.107 0 .2-.033.28-.1.08-.08.147-.173.2-.28.067-.107.114-.22.14-.34.04-.12.06-.233.06-.34v-10.7c0-.093-.02-.2-.06-.32a1.082 1.082 0 00-.14-.34.796.796 0 00-.2-.26.384.384 0 00-.28-.12h-.1v-.2h7.7v1.86h-.2a1.302 1.302 0 00-.36-.8c-.213-.24-.546-.36-1-.36h-4.02v5.06h3.32c.307 0 .56-.093.76-.28.213-.187.32-.407.32-.66h.2v2.5h-.2c0-.24-.1-.447-.3-.62-.2-.173-.46-.26-.78-.26h-3.32v6.06h4.38c.253 0 .473-.06.66-.18.187-.12.34-.26.46-.42.134-.173.227-.353.28-.54.067-.2.1-.367.1-.5h.2V42h-8.2v-.2zm17.283-12.48c-.986 0-1.846.18-2.58.54-.72.347-1.32.807-1.8 1.38-.48.56-.84 1.193-1.08 1.9a6.849 6.849 0 00-.34 2.1c0 .787.154 1.56.46 2.32a6.775 6.775 0 001.26 2 6.815 6.815 0 001.9 1.4c.72.347 1.5.52 2.34.52.24 0 .52-.027.84-.08.334-.053.66-.153.98-.3.32-.16.614-.38.88-.66.28-.28.494-.647.64-1.1h.2v2.22c-.2 0-.413.027-.64.08l-.72.18c-.346.093-.733.18-1.16.26a6.94 6.94 0 01-1.32.12c-1.16 0-2.18-.2-3.06-.6-.88-.4-1.613-.92-2.2-1.56a6.465 6.465 0 01-1.32-2.16 7.205 7.205 0 01-.44-2.46c0-.827.147-1.647.44-2.46.293-.813.74-1.54 1.34-2.18.6-.653 1.354-1.18 2.26-1.58.907-.4 1.974-.6 3.2-.6.44 0 .833.04 1.18.12.36.08.68.16.96.24.2.067.38.12.54.16.174.027.34.04.5.04v2.22h-.2c-.08-.413-.227-.753-.44-1.02a2.171 2.171 0 00-.76-.64 2.982 2.982 0 00-.92-.3 4.6 4.6 0 00-.94-.1zM43.77 41.8h.1c.093 0 .18-.033.26-.1.08-.08.147-.173.2-.28.067-.12.113-.24.14-.36.027-.133.04-.253.04-.36v-5.44h-6.4v5.44c0 .107.013.227.04.36a1.465 1.465 0 00.3.62c.08.08.173.12.28.12h.1v.2h-2.8v-.2h.1c.093 0 .18-.033.26-.1.08-.08.147-.173.2-.28.067-.12.113-.24.14-.36.027-.133.04-.253.04-.36V30.04c0-.093-.013-.2-.04-.32a1.474 1.474 0 00-.12-.34.796.796 0 00-.2-.26.384.384 0 00-.28-.12h-.1v-.2h2.8v.2h-.1c-.107 0-.2.04-.28.12a.795.795 0 00-.2.26c-.04.107-.073.22-.1.34-.027.12-.04.227-.04.32v4.52h6.4v-4.52c0-.093-.013-.2-.04-.32a1.474 1.474 0 00-.12-.34.796.796 0 00-.2-.26.384.384 0 00-.28-.12h-.1v-.2h2.8v.2h-.1c-.107 0-.2.04-.28.12a.795.795 0 00-.2.26c-.04.107-.073.22-.1.34-.027.12-.04.227-.04.32V40.7c0 .107.013.227.04.36.04.12.087.233.14.34.053.107.113.2.18.28.08.08.167.12.26.12h.1v.2h-2.8v-.2zm13.302 0h.1c.32 0 .48-.147.48-.44 0-.107-.02-.22-.06-.34l-1.8-4.86h-3.5l-1.74 4.78a.857.857 0 00-.06.3c0 .173.046.313.14.42a.42.42 0 00.3.14h.1v.2h-2.22v-.2h.1c.173 0 .34-.1.5-.3.173-.213.313-.46.42-.74l4.58-12.2 4.48 12.08c.093.267.22.527.38.78.173.253.393.38.66.38h.1v.2h-2.96v-.2zm-4.58-6.32h3.08l-1.54-4.18-1.54 4.18zm16.332 6.32h.1c.093 0 .18-.04.26-.12.08-.08.146-.173.2-.28.066-.107.113-.22.14-.34.026-.133.04-.253.04-.36V30.06c0-.093-.014-.2-.04-.32a1.082 1.082 0 00-.14-.34.669.669 0 00-.22-.28.384.384 0 00-.28-.12h-.1v-.2h3.28c1.24 0 2.206.273 2.9.82.706.547 1.06 1.273 1.06 2.18 0 .387-.067.733-.2 1.04-.134.307-.307.58-.52.82-.2.24-.42.447-.66.62-.24.16-.467.293-.68.4.56.107 1.026.287 1.4.54.373.253.673.547.9.88.24.32.406.667.5 1.04.093.373.14.74.14 1.1 0 .693-.127 1.28-.38 1.76a3.418 3.418 0 01-1.02 1.16 4.167 4.167 0 01-1.44.64c-.534.133-1.087.2-1.66.2h-3.58v-.2zm6.72-3.44c-.107-1.027-.454-1.82-1.04-2.38-.587-.56-1.414-.84-2.48-.84h-1.12v6.2h1.16c1.08 0 1.926-.24 2.54-.72.626-.493.94-1.173.94-2.04v-.22zm-.82-6.38c-.04-.773-.314-1.387-.82-1.84-.494-.453-1.16-.68-2-.68h-1v5.04h1.04c.56 0 1.013-.073 1.36-.22.36-.147.646-.333.86-.56.213-.24.36-.5.44-.78.08-.28.12-.553.12-.82v-.14zm11.422-2.66c-.987 0-1.847.18-2.58.54-.72.347-1.32.807-1.8 1.38-.48.56-.84 1.193-1.08 1.9a6.846 6.846 0 00-.34 2.1c0 .787.153 1.56.46 2.32a6.775 6.775 0 001.26 2 6.815 6.815 0 001.9 1.4c.72.347 1.5.52 2.34.52.24 0 .52-.027.84-.08.333-.053.66-.153.98-.3.32-.16.613-.38.88-.66.28-.28.493-.647.64-1.1h.2v2.22c-.2 0-.414.027-.64.08l-.72.18c-.347.093-.734.18-1.16.26a6.94 6.94 0 01-1.32.12c-1.16 0-2.18-.2-3.06-.6-.88-.4-1.614-.92-2.2-1.56a6.462 6.462 0 01-1.32-2.16 7.205 7.205 0 01-.44-2.46c0-.827.146-1.647.44-2.46.293-.813.74-1.54 1.34-2.18.6-.653 1.353-1.18 2.26-1.58.906-.4 1.973-.6 3.2-.6.44 0 .833.04 1.18.12.36.08.68.16.96.24.2.067.38.12.54.16.173.027.34.04.5.04v2.22h-.2c-.08-.413-.227-.753-.44-1.02a2.172 2.172 0 00-.76-.64 2.983 2.983 0 00-.92-.3 4.6 4.6 0 00-.94-.1zm6.62 12.48h.1c.107 0 .2-.033.28-.1.08-.08.147-.173.2-.28.067-.107.114-.22.14-.34.04-.12.06-.233.06-.34v-10.7c0-.093-.02-.2-.06-.32a1.077 1.077 0 00-.14-.34.795.795 0 00-.2-.26.384.384 0 00-.28-.12h-.1v-.2h7.701v1.86h-.2a1.303 1.303 0 00-.36-.8c-.214-.24-.547-.36-1-.36h-4.02v5.06h3.32c.306 0 .56-.093.76-.28.213-.187.32-.407.32-.66h.2v2.5h-.2c0-.24-.1-.447-.3-.62-.2-.173-.46-.26-.78-.26h-3.32v6.06h4.38c.253 0 .473-.06.66-.18a1.755 1.755 0 00.74-.96c.066-.2.1-.367.1-.5h.2V42h-8.2v-.2zm13.688 0h.1v.2h-2.88v-.2h.1c.106 0 .2-.033.28-.1.08-.08.146-.173.2-.28.066-.107.113-.22.14-.34.026-.12.04-.233.04-.34v-10.7c0-.093-.014-.2-.04-.32a1.103 1.103 0 00-.14-.34.805.805 0 00-.2-.26.385.385 0 00-.28-.12h-.1v-.2h7.7v2.12h-.2c0-.48-.107-.833-.32-1.06-.2-.24-.52-.36-.96-.36h-4.1v11.24a1.55 1.55 0 00.16.68c.066.107.14.2.22.28.08.067.173.1.28.1zm16.169-.5v2.5h-.2a2.13 2.13 0 00-.14-.58 2.233 2.233 0 00-.34-.6 1.88 1.88 0 00-.48-.44 1.123 1.123 0 00-.62-.18h-9.22c-.227 0-.433.06-.62.18a2.733 2.733 0 00-.5.46 3.318 3.318 0 00-.34.6c-.08.213-.127.4-.14.56h-.2v-2.5h.88c.427 0 .727-.247.9-.74l4.6-12.06 4.64 12c.093.2.22.387.38.56.16.16.347.24.56.24h.84zm-10.58 0h7.7l-3.86-9.94-3.84 9.94zm21.046.5h.1c.32 0 .48-.147.48-.44 0-.107-.02-.22-.06-.34l-1.8-4.86h-3.5l-1.74 4.78a.857.857 0 00-.06.3c0 .173.046.313.14.42a.42.42 0 00.3.14h.1v.2h-2.22v-.2h.1c.173 0 .34-.1.5-.3.173-.213.313-.46.42-.74l4.58-12.2 4.48 12.08c.093.267.22.527.38.78.173.253.393.38.66.38h.1v.2h-2.96v-.2zm-4.58-6.32h3.08l-1.54-4.18-1.54 4.18z" fill="#fff"/><path d="M72.753 9c0 2.33-1.133 4.474-2.311 6.067a17.308 17.308 0 01-2.008 2.26 17.32 17.32 0 01-2.008-2.261C65.25 13.475 64.116 11.33 64.116 9c0-2.33 1.134-4.474 2.312-6.067a17.323 17.323 0 012.007-2.26 17.312 17.312 0 012.008 2.261C71.62 4.525 72.753 6.67 72.753 9z" stroke="#fff"/><path d="M66.557 8.78c1.461 1.667 2.033 4.098 2.224 6.182a20.83 20.83 0 01.037 3.268 14.035 14.035 0 01-2.864-.042c-1.826-.219-3.956-.871-5.417-2.538-1.46-1.668-2.032-4.098-2.224-6.183a20.847 20.847 0 01-.037-3.268 14.028 14.028 0 012.864.042c1.826.219 3.956.871 5.417 2.538zM71.65 8.78c-1.462 1.667-2.033 4.098-2.225 6.182a20.83 20.83 0 00-.037 3.268 14.035 14.035 0 002.864-.042c1.826-.219 3.956-.871 5.417-2.538 1.46-1.668 2.032-4.098 2.224-6.183A20.847 20.847 0 0079.93 6.2a14.028 14.028 0 00-2.864.042c-1.826.219-3.956.871-5.417 2.538zM47 12H2M136 12H90" stroke="#fff"/></svg><svg viewBox="0 0 27 27" id="union" xmlns="http://www.w3.org/2000/svg"><path fill-rule="evenodd" clip-rule="evenodd" d="M13.5 25.778c6.904 0 12.5-5.597 12.5-12.5 0-6.904-5.596-12.5-12.5-12.5S1 6.374 1 13.278a12.45 12.45 0 002.89 7.995L2.39 25.778l5.646-1.255a12.45 12.45 0 005.465 1.255z"/><path d="M3.89 21.273l.475.158.088-.264-.178-.214-.384.32zM2.39 25.778l-.474-.158-.28.837.862-.191-.108-.488zm5.646-1.255l.219-.45-.157-.076-.17.038.108.488zM25.5 13.278c0 6.627-5.373 12-12 12v1c7.18 0 13-5.82 13-13h-1zm-12-12c6.627 0 12 5.372 12 12h1c0-7.18-5.82-13-13-13v1zm-12 12c0-6.628 5.373-12 12-12v-1c-7.18 0-13 5.82-13 13h1zm2.775 7.675A11.95 11.95 0 011.5 13.278h-1a12.95 12.95 0 003.006 8.315l.769-.64zm-1.412 4.983l1.502-4.505-.949-.316-1.501 4.505.948.316zm5.064-1.901L2.28 25.29l.217.976 5.647-1.255-.217-.976zm5.573 1.243a11.95 11.95 0 01-5.246-1.204l-.438.899a12.95 12.95 0 005.684 1.305v-1z" fill="#fff"/></svg><svg viewBox="0 0 27 27" id="union-gray" xmlns="http://www.w3.org/2000/svg"><path d="M3.89 21.273l.475.158.088-.264-.178-.214-.384.32zM2.39 25.778l-.474-.158-.28.837.862-.191-.108-.488zm5.646-1.255l.219-.45-.157-.076-.17.038.108.488zM25.5 13.278c0 6.627-5.373 12-12 12v1c7.18 0 13-5.82 13-13h-1zm-12-12c6.627 0 12 5.372 12 12h1c0-7.18-5.82-13-13-13v1zm-12 12c0-6.628 5.373-12 12-12v-1c-7.18 0-13 5.82-13 13h1zm2.775 7.675A11.95 11.95 0 011.5 13.278h-1a12.95 12.95 0 003.006 8.315l.769-.64zm-1.412 4.983l1.502-4.505-.949-.316-1.501 4.505.948.316zm5.064-1.901L2.28 25.29l.217.976 5.647-1.255-.217-.976zm5.573 1.243a11.95 11.95 0 01-5.246-1.204l-.438.899a12.95 12.95 0 005.684 1.305v-1z" fill="#fff"/></svg><svg viewBox="0 0 15 9" id="vk" xmlns="http://www.w3.org/2000/svg"><path d="M13.348 6.215c1.207 1.17 1.458 1.741 1.499 1.811.498.867-.553.935-.553.935l-2.012.03s-.435.09-1.003-.32c-.754-.54-1.784-1.945-2.336-1.762-.562.185-.383 1.659-.383 1.659s.005.18-.122.325c-.14.153-.412.094-.412.094h-.58s-2.148.01-3.9-1.898C1.637 5.01.04 1.123.04 1.123S-.056.876.048.745C.168.598.492.6.492.6h2.153s.201.028.346.14a.677.677 0 01.188.265s.26.724.722 1.559C4.8 4.19 5.22 4.546 5.524 4.37c.444-.256.31-2.3.31-2.3s.01-.742-.224-1.073C5.43.741 5.092.666 4.943.644 4.82.63 5.02.335 5.278.204 5.665.007 6.35-.007 7.158.002 7.789.01 8.027 0 8.027 0c.742.187.491.914.491 2.648 0 .558-.097 1.34.288 1.598.165.115.758.132 1.765-1.661.48-.85.858-1.65.858-1.65s.082-.18.202-.255c.127-.08.294-.08.294-.08l2.266.012s.682-.09.79.234c.116.337-.278.928-1.202 2.22-1.521 2.12-1.69 1.923-.43 3.149z"/></svg><svg viewBox="0 0 15 16" id="whatsapp" xmlns="http://www.w3.org/2000/svg"><path fill-rule="evenodd" clip-rule="evenodd" d="M5.732 2.122c-.119-.572-.35-.627-.558-.675-.17-.04-.367-.078-.563-.115-.194-.037-.528-.02-.858.247-.331.264-1.238.886-1.536 2.447-.298 1.559.47 3.269.574 3.508.108.237 1.365 3.902 4.11 5.744 2.281 1.53 2.827 1.417 3.374 1.467.55.049 1.888-.434 2.274-1.13.385-.691.506-1.325.46-1.472-.048-.147-.23-.263-.494-.479-.262-.215-1.561-1.256-1.812-1.415-.249-.155-.435-.245-.691.033-.257.279-.957.886-1.17 1.065-.212.178-.386.172-.652-.04-.262-.216-1.145-.731-2.062-2.026-.713-1.008-1.106-2.157-1.217-2.508-.111-.349.074-.492.252-.623.16-.115.367-.314.55-.471.18-.158.254-.279.393-.471.137-.193.124-.388.082-.561-.042-.173-.314-1.848-.456-2.525z"/></svg></svg>