<?xml version="1.0" encoding="iso-8859-1"?>
<!-- Generator: Adobe Illustrator 18.1.1, SVG Export Plug-In . SVG Version: 6.00 Build 0)  -->
<svg version="1.1" id="sheets" xmlns="http://www.w3.org/2000/svg" xmlns:xlink="http://www.w3.org/1999/xlink" x="0px" y="0px"
	 viewBox="0 0 288.252 288.252" style="enable-background:new 0 0 288.252 288.252;" xml:space="preserve">
<g>
	<path id="path22217" d="M161.758,20.786c-4.765,0-9.53,0.995-13.57,2.986L7.193,93.249c-4.041,1.991-7.18,5.257-7.18,9.484
		s3.139,7.493,7.18,9.484l79.309,39.08c0.589,0.291,1.24,0.436,1.896,0.424l79.309-1.447c0.605-0.011,1.201-0.156,1.744-0.424
		l111.621-55.002c4.041-1.991,7.18-5.257,7.18-9.484s-3.139-7.493-7.18-9.484L175.326,23.772
		C171.285,21.781,166.522,20.786,161.758,20.786z M161.758,29.337c3.73,0,7.459,0.608,9.928,1.824l105.744,52.107
		c2.468,1.216,2.584,2.137,2.584,2.096s-0.116,0.879-2.584,2.096l-109.799,54.105l-39.301-19.367
		c-0.619-0.306-1.306-0.451-1.996-0.422c-0.572,0.025-1.133,0.168-1.646,0.422l-39.303,19.367l-74.549-36.736
		c-2.468-1.216-2.584-2.137-2.584-2.096s0.116-0.879,2.584-2.096l140.992-69.477C154.296,29.944,158.027,29.337,161.758,29.337z
		 M173.422,48.553c-1.137,0.031-2.034,0.977-2.003,2.114c0.021,0.775,0.476,1.473,1.177,1.806l58.748,28.947
		c1.007,0.529,2.252,0.142,2.781-0.864c0.529-1.007,0.142-2.252-0.864-2.781c-0.032-0.017-0.064-0.033-0.097-0.048l-58.748-28.949
		C174.108,48.621,173.767,48.544,173.422,48.553z M144.049,63.028c-1.137,0.033-2.032,0.981-1.999,2.118
		c0.022,0.773,0.475,1.467,1.173,1.8l58.746,28.949c1.007,0.529,2.252,0.142,2.781-0.864c0.529-1.007,0.142-2.252-0.864-2.781
		c-0.032-0.017-0.064-0.033-0.097-0.048l-58.746-28.949C144.735,63.096,144.393,63.018,144.049,63.028z M114.675,77.503
		c-1.137,0.033-2.032,0.981-1.999,2.118c0.022,0.773,0.475,1.467,1.173,1.8l58.746,28.949c1.02,0.503,2.255,0.083,2.758-0.938
		s0.083-2.255-0.938-2.758L115.67,77.727C115.362,77.57,115.02,77.493,114.675,77.503z M63.914,78.948
		c-0.324,0.001-0.643,0.079-0.932,0.227l-44.061,21.711c-1.02,0.502-1.44,1.737-0.938,2.757c0.201,0.407,0.53,0.737,0.938,0.938
		l20.561,10.131c1.007,0.529,2.252,0.142,2.781-0.864c0.529-1.007,0.142-2.252-0.864-2.781c-0.032-0.017-0.064-0.033-0.097-0.048
		l-16.811-8.285l40.311-19.865c1.027-0.488,1.465-1.716,0.977-2.744C65.438,79.404,64.711,78.946,63.914,78.948z M126.507,130.483
		l24.078,11.865l-50.008,0.912L126.507,130.483z M282.494,130.993c-0.787-0.003-1.563,0.18-2.266,0.533l-155.432,75.492
		L7.343,148.051c-2.453-1.268-5.47-0.307-6.738,2.146c-1.268,2.453-0.307,5.47,2.146,6.738c0.035,0.018,0.07,0.036,0.106,0.053
		l119.66,60.074c1.391,0.698,3.028,0.709,4.428,0.029l157.652-76.57c2.501-1.171,3.58-4.148,2.409-6.649
		C286.186,132.121,284.428,130.999,282.494,130.993z M174.144,170.987c-0.393,0.003-0.78,0.099-1.129,0.279l-48.871,24.436
		l-43.873-22.426c-1.231-0.627-2.737-0.138-3.364,1.092c-0.626,1.228-0.14,2.731,1.086,3.361l45,23
		c0.708,0.362,1.545,0.365,2.256,0.01l50-25c1.244-0.6,1.765-2.095,1.165-3.338C175.995,171.53,175.111,170.98,174.144,170.987z
		 M282.494,180.866c-0.787-0.003-1.563,0.18-2.266,0.533l-155.432,75.49L7.343,197.924c-2.44-1.293-5.467-0.364-6.76,2.076
		s-0.364,5.467,2.076,6.76c0.065,0.035,0.131,0.068,0.198,0.099l119.66,60.074c1.391,0.698,3.028,0.709,4.428,0.029l157.652-76.568
		c2.501-1.171,3.58-4.148,2.409-6.649C286.186,181.994,284.428,180.872,282.494,180.866z M174.144,220.858
		c-0.393,0.003-0.78,0.099-1.129,0.279l-48.871,24.436l-43.873-22.424c-1.22-0.648-2.733-0.184-3.381,1.036
		c-0.648,1.22-0.184,2.733,1.036,3.381c0.022,0.012,0.045,0.023,0.068,0.035l45,23c0.708,0.362,1.545,0.365,2.256,0.01l50-25
		c1.244-0.6,1.765-2.095,1.165-3.338C175.995,221.401,175.111,220.851,174.144,220.858z"/>
</g>
</svg>
