<svg width="349" height="426" fill="none" xmlns="http://www.w3.org/2000/svg"><path d="M141.06 133.021c37.738 46.255-1.523 123.914-53.987 103.775-22.627-8.685-35.691-33.181-36.078-58.235-.892-57.864 57.668-85.26 90.065-45.54zm45.833 29.076c-58.031-22.276-37.648-127.31 23.692-122.318 27.946 2.276 49.725 30.914 46.498 66.742-3.607 40.162-37.566 68.1-70.19 55.576z" fill="#FAC663" fill-opacity=".15"/><path d="M134.607 342.918c8.913.87 23.766 4.928 38.817 10.468 15.914 5.843 32.049 13.336 41.632 20.413 25.864 19.166 72.739 14.811 79.624-28.963 6.36-40.469-23.186-49.366-16.375-87.418 6.906-38.448-13.06-65.947-39.436-74.522-24.414-7.933-54.318.353-73.442 31.202-20.369 32.875-48.213 19.719-70.549 54.041-24.218 37.158 7.827 71.687 39.729 74.779zm154.418-141.612c-16.414-6.301-26.859-21.229-29.102-38.8-6.663-52.248 54.599-97.52 93.334-67.92 49.003 37.417-6.232 128.984-64.232 106.72z" fill="#FAC663" fill-opacity=".15"/><path d="M289.808 277.668c-1.165-52.66 64.341-91.294 99.809-57.612 42.724 40.57-14.563 122.825-70.431 101.38-17.929-6.883-28.937-23.749-29.378-43.768z" fill="#FAC663" fill-opacity=".15"/></svg>