<svg width="91" height="91" fill="none" xmlns="http://www.w3.org/2000/svg"><path fill="#E5E5E5" d="M0 0h91v91H0z"/><g clip-path="url(#clip0)"><path fill="#FFFEFD" d="M-128-1186h1366v3560H-128z"/><g filter="url(#filter0_d)"><rect x="-30" y="-30" width="370" height="321" rx="8" fill="#fff"/><rect x="-29.5" y="-29.5" width="369" height="320" rx="7.5" stroke="#FFFDFB"/></g><rect width="91" height="91" rx="45.5" fill="#FAC663"/><path d="M47.159 46.617c3.275 0 5.955 3.443 5.955 4.303 0 .86-2.68 3.73-5.955 3.73-3.276 0-5.657-3.73-5.657-3.73s2.381-4.303 5.657-4.303z" fill="#FFFDFB"/><path d="M37.928 47.478l3.574 3.442m0 0l-3.574 3.443m3.574-3.443s2.381 3.73 5.657 3.73c3.275 0 5.955-2.87 5.955-3.73 0-.86-2.68-4.303-5.955-4.303-3.276 0-5.657 4.303-5.657 4.303z" stroke="#FFFDFB" stroke-width="2" stroke-linecap="round" stroke-linejoin="round"/><mask id="a" fill="#fff"><path d="M71.984 61.294l-3.326-22.407c-.11-.736-.764-1.283-1.537-1.283h-4.075c-.716-3.095-3.539-4.012-3.85-4.111-1.528-2.949-4.67-3.086-5.008-3.097-1.865-1.936-4.374-1.946-5.711-1.615-1.19-.682-3.6-1.349-5.954 0-1.338-.33-3.847-.321-5.711 1.615-.334.011-3.482.148-5.008 3.097-.317.101-3.136 1.022-3.85 4.111h-4.075c-.773 0-1.428.547-1.537 1.283l-3.326 22.407c-.064.43.069.864.364 1.19.294.328.723.516 1.173.516h49.894c.45 0 .878-.188 1.173-.515.295-.328.428-.762.364-1.19zm-39.446-26.19a1.536 1.536 0 001.318-1.098c.313-1.126 2.33-1.929 3.426-1.75a1.575 1.575 0 001.588-.7c.592-.942 2.181-1.4 3.22-.91a1.6 1.6 0 001.73-.24c.846-.744 2.51-.747 3.36 0a1.6 1.6 0 001.731.24c1.023-.483 3.213-.046 3.814.91.33.525.96.802 1.588.7 1.116-.183 3.119.643 3.426 1.75a1.535 1.535 0 001.318 1.097c.15.018 1.274 1.359 1.898 2.502H30.044c.57-1.046 2.189-2.467 2.494-2.502zM20.556 61.733l3.479-22.861h42.93l3.478 22.86H20.556z"/><path d="M32.538 35.103a1.536 1.536 0 001.318-1.097c.313-1.126 2.33-1.929 3.426-1.75a1.575 1.575 0 001.588-.7c.592-.942 2.181-1.4 3.22-.91a1.6 1.6 0 001.73-.24c.846-.744 2.51-.747 3.36 0a1.6 1.6 0 001.731.24c1.023-.483 3.213-.046 3.814.91.33.525.96.802 1.588.7 1.116-.183 3.119.643 3.426 1.75a1.535 1.535 0 001.318 1.097c.15.018 1.274 1.359 1.898 2.502H30.044c.57-1.046 2.189-2.467 2.494-2.502z"/></mask><path d="M71.984 61.294l-3.326-22.407c-.11-.736-.764-1.283-1.537-1.283h-4.075c-.716-3.095-3.539-4.012-3.85-4.111-1.528-2.949-4.67-3.086-5.008-3.097-1.865-1.936-4.374-1.946-5.711-1.615-1.19-.682-3.6-1.349-5.954 0-1.338-.33-3.847-.321-5.711 1.615-.334.011-3.482.148-5.008 3.097-.317.101-3.136 1.022-3.85 4.111h-4.075c-.773 0-1.428.547-1.537 1.283l-3.326 22.407c-.064.43.069.864.364 1.19.294.328.723.516 1.173.516h49.894c.45 0 .878-.188 1.173-.515.295-.328.428-.762.364-1.19zm-39.446-26.19a1.536 1.536 0 001.318-1.098c.313-1.126 2.33-1.929 3.426-1.75a1.575 1.575 0 001.588-.7c.592-.942 2.181-1.4 3.22-.91a1.6 1.6 0 001.73-.24c.846-.744 2.51-.747 3.36 0a1.6 1.6 0 001.731.24c1.023-.483 3.213-.046 3.814.91.33.525.96.802 1.588.7 1.116-.183 3.119.643 3.426 1.75a1.535 1.535 0 001.318 1.097c.15.018 1.274 1.359 1.898 2.502H30.044c.57-1.046 2.189-2.467 2.494-2.502zM20.556 61.733l3.479-22.861h42.93l3.478 22.86H20.556z" fill="#FFFDFB"/><path d="M32.538 35.103a1.536 1.536 0 001.318-1.097c.313-1.126 2.33-1.929 3.426-1.75a1.575 1.575 0 001.588-.7c.592-.942 2.181-1.4 3.22-.91a1.6 1.6 0 001.73-.24c.846-.744 2.51-.747 3.36 0a1.6 1.6 0 001.731.24c1.023-.483 3.213-.046 3.814.91.33.525.96.802 1.588.7 1.116-.183 3.119.643 3.426 1.75a1.535 1.535 0 001.318 1.097c.15.018 1.274 1.359 1.898 2.502H30.044c.57-1.046 2.189-2.467 2.494-2.502z" fill="#FFFDFB"/><path d="M71.984 61.294l-3.326-22.407c-.11-.736-.764-1.283-1.537-1.283h-4.075c-.716-3.095-3.539-4.012-3.85-4.111-1.528-2.949-4.67-3.086-5.008-3.097-1.865-1.936-4.374-1.946-5.711-1.615-1.19-.682-3.6-1.349-5.954 0-1.338-.33-3.847-.321-5.711 1.615-.334.011-3.482.148-5.008 3.097-.317.101-3.136 1.022-3.85 4.111h-4.075c-.773 0-1.428.547-1.537 1.283l-3.326 22.407c-.064.43.069.864.364 1.19.294.328.723.516 1.173.516h49.894c.45 0 .878-.188 1.173-.515.295-.328.428-.762.364-1.19zm-39.446-26.19a1.536 1.536 0 001.318-1.098c.313-1.126 2.33-1.929 3.426-1.75a1.575 1.575 0 001.588-.7c.592-.942 2.181-1.4 3.22-.91a1.6 1.6 0 001.73-.24c.846-.744 2.51-.747 3.36 0a1.6 1.6 0 001.731.24c1.023-.483 3.213-.046 3.814.91.33.525.96.802 1.588.7 1.116-.183 3.119.643 3.426 1.75a1.535 1.535 0 001.318 1.097c.15.018 1.274 1.359 1.898 2.502H30.044c.57-1.046 2.189-2.467 2.494-2.502zM20.556 61.733l3.479-22.861h42.93l3.478 22.86H20.556z" stroke="#FFFDFB" stroke-width="2" mask="url(#a)"/><path d="M32.538 35.103a1.536 1.536 0 001.318-1.097c.313-1.126 2.33-1.929 3.426-1.75a1.575 1.575 0 001.588-.7c.592-.942 2.181-1.4 3.22-.91a1.6 1.6 0 001.73-.24c.846-.744 2.51-.747 3.36 0a1.6 1.6 0 001.731.24c1.023-.483 3.213-.046 3.814.91.33.525.96.802 1.588.7 1.116-.183 3.119.643 3.426 1.75a1.535 1.535 0 001.318 1.097c.15.018 1.274 1.359 1.898 2.502H30.044c.57-1.046 2.189-2.467 2.494-2.502z" stroke="#FFFDFB" stroke-width="2" mask="url(#a)"/></g><defs><clipPath id="clip0"><path fill="#fff" transform="translate(-128 -1186)" d="M0 0h1366v3560H0z"/></clipPath><filter id="filter0_d" x="-55" y="-55" width="420" height="371" filterUnits="userSpaceOnUse" color-interpolation-filters="sRGB"><feFlood flood-opacity="0" result="BackgroundImageFix"/><feColorMatrix in="SourceAlpha" values="0 0 0 0 0 0 0 0 0 0 0 0 0 0 0 0 0 0 127 0"/><feOffset/><feGaussianBlur stdDeviation="12.5"/><feColorMatrix values="0 0 0 0 0.815951 0 0 0 0 0.815951 0 0 0 0 0.815951 0 0 0 0.25 0"/><feBlend in2="BackgroundImageFix" result="effect1_dropShadow"/><feBlend in="SourceGraphic" in2="effect1_dropShadow" result="shape"/></filter></defs></svg>